<svg xmlns="http://www.w3.org/2000/svg" width="165.92" height="40.69" viewBox="0 0 165.92 40.69">
  <g id="Group_648" data-name="Group 648" transform="translate(-194.45 225.92)">
    <path id="Path_4999" data-name="Path 4999" d="M230.37-225.91,220.96-199a18.505,18.505,0,0,0-.86,3.44h-.15a17.4,17.4,0,0,0-.86-3.39l-10.22-26.96H194.45v1.26a7.476,7.476,0,0,1,4,2.98,34.827,34.827,0,0,1,2.78,5.41l13.15,31.01H224.6l16.54-40.67H230.37Z"/>
    <path id="Path_5000" data-name="Path 5000" d="M242.11-225.91v1.21c2.53.91,3.84,3.69,3.84,8.45v31.01h10.52v-40.67Z"/>
    <path id="Path_5001" data-name="Path 5001" d="M292.64-222.47c-2.68-2.28-6.22-3.44-10.62-3.44H261.38v1.26c2.53.86,3.84,3.64,3.84,8.4v31.01h10.52v-15.28h6.27q6.6,0,10.62-3.49a11.493,11.493,0,0,0,4.05-9.21A11.481,11.481,0,0,0,292.64-222.47Zm-8.3,13.46a6.448,6.448,0,0,1-4.45,1.42h-4.15v-11.03h4.15a6.233,6.233,0,0,1,4.45,1.47,5.2,5.2,0,0,1,1.57,4.05A5.306,5.306,0,0,1,284.34-209.01Z"/>
    <path id="Path_5002" data-name="Path 5002" d="M302.5-185.24h10.57v-27.97a84.952,84.952,0,0,0-10.57-3.64Zm-3.79-40.67v1.21c1.92.71,3.09,2.43,3.54,5.31a68.064,68.064,0,0,1,10.82,1.11v-7.64H298.71Z"/>
    <path id="Path_5003" data-name="Path 5003" d="M355.21-219.74c-3.74-4.15-8.9-6.17-15.43-6.17h-21.8v1.26c2.53.86,3.79,3.64,3.79,8.4v.1a61,61,0,0,1,10.57,4.4v-6.73h4.15q6.6,0,9.86,4.1,2.73,3.27,2.73,8.8a13.235,13.235,0,0,1-2.73,8.65c-2.18,2.68-5.46,4-9.86,4h-4.15v-8.95a57.913,57.913,0,0,0-10.57-7.23v23.88h18.01c6.47,0,11.63-2.07,15.43-6.22a20.053,20.053,0,0,0,5.16-14.11A20.126,20.126,0,0,0,355.21-219.74Z"/>
  </g>
</svg>
